<svg width="24" height="21" viewBox="0 0 24 21" fill="none" xmlns="http://www.w3.org/2000/svg">
<path d="M23.6984 21H12.0001C11.8812 21 11.7733 20.9292 11.7246 20.8195L9.13117 14.9656C4.29805 15.7483 0.945572 18.3825 0.628233 20.3895H5.48993C5.65655 20.3895 5.79177 20.5263 5.79177 20.6948C5.79177 20.8633 5.65655 21 5.48993 21H0.301844C0.135226 21 0 20.8633 0 20.6948C0 18.2034 3.75333 15.2786 8.87743 14.3932L7.31186 10.8594C7.27645 10.7794 7.27665 10.6878 7.31267 10.6083L12.0041 0.178851C12.0518 0.0726277 12.1556 0.00325588 12.2712 0C12.3883 0.000813969 12.4935 0.0612383 12.5468 0.164816L18.2867 11.3667C18.3634 11.5164 18.3056 11.7008 18.1575 11.7781C18.0094 11.8553 17.8269 11.7972 17.7506 11.6475L12.2965 1.003L7.91836 10.7354L9.4964 14.2971C10.3033 14.1862 11.1411 14.1262 11.9999 14.1262C18.4626 14.1262 24 17.7378 24 20.6945C24.0002 20.8632 23.865 21 23.6984 21ZM12.1957 20.3895H23.3702C22.9778 18.0506 18.2263 14.7369 12.0001 14.7369C11.2242 14.7369 10.474 14.7857 9.75297 14.8763L12.1957 20.3895Z" fill="#131612"/>
<path d="M19.2176 14.8198C18.5518 14.8198 18.0103 14.272 18.0103 13.5989C18.0103 12.9255 18.5518 12.3779 19.2176 12.3779C19.8835 12.3779 20.425 12.9255 20.425 13.5989C20.425 14.272 19.8835 14.8198 19.2176 14.8198ZM19.2176 12.9884C18.8848 12.9884 18.6139 13.2623 18.6139 13.5989C18.6139 13.9355 18.8848 14.2094 19.2176 14.2094C19.5505 14.2094 19.8213 13.9355 19.8213 13.5989C19.8213 13.2623 19.5507 12.9884 19.2176 12.9884Z" fill="#131612"/>
</svg>
