<svg width="61" height="78" viewBox="0 0 61 78" fill="none" xmlns="http://www.w3.org/2000/svg">
<rect width="61" height="78" rx="8" fill="white"/>
<circle cx="30.5" cy="28" r="19.75" fill="#C8E6C2" stroke="black" stroke-width="0.5"/>
<path d="M26.5 25C26.5 23.8954 25.6046 23 24.5 23C23.3954 23 22.5 23.8954 22.5 25" stroke="black" stroke-width="0.5" stroke-linecap="round"/>
<path d="M38.5 25C38.5 23.8954 37.6046 23 36.5 23C35.3954 23 34.5 23.8954 34.5 25" stroke="black" stroke-width="0.5" stroke-linecap="round"/>
<path d="M22.5 30C25.5 36.6667 35.5 36.6667 38.5 30" stroke="#131612" stroke-width="0.5" stroke-linecap="round"/>
<path d="M10.72 66V57.6H15.832V58.44H11.56V61.08H15.094V61.92H11.56V65.16H15.832V66H10.72ZM16.5972 66L18.7932 62.988L16.6032 59.982H17.6412L19.3152 62.268L20.9832 59.982H22.0152L19.8312 62.988L22.0272 66H20.9892L19.3152 63.696L17.6352 66H16.5972ZM25.4303 66.156C24.8783 66.156 24.3743 66.014 23.9183 65.73C23.4663 65.446 23.1043 65.066 22.8323 64.59C22.5643 64.11 22.4303 63.58 22.4303 63C22.4303 62.56 22.5083 62.15 22.6643 61.77C22.8203 61.386 23.0343 61.05 23.3063 60.762C23.5823 60.47 23.9023 60.242 24.2663 60.078C24.6303 59.914 25.0183 59.832 25.4303 59.832C25.8743 59.832 26.2823 59.92 26.6543 60.096C27.0303 60.272 27.3523 60.518 27.6203 60.834C27.8923 61.15 28.0963 61.52 28.2323 61.944C28.3723 62.368 28.4303 62.826 28.4063 63.318H23.3183C23.3663 63.698 23.4863 64.038 23.6783 64.338C23.8743 64.638 24.1223 64.876 24.4223 65.052C24.7263 65.224 25.0623 65.312 25.4303 65.316C25.8303 65.316 26.1903 65.212 26.5103 65.004C26.8343 64.796 27.0943 64.51 27.2903 64.146L28.1423 64.344C27.9023 64.876 27.5403 65.312 27.0563 65.652C26.5723 65.988 26.0303 66.156 25.4303 66.156ZM23.2943 62.64H27.5603C27.5323 62.268 27.4183 61.928 27.2183 61.62C27.0223 61.308 26.7683 61.06 26.4563 60.876C26.1443 60.688 25.8023 60.594 25.4303 60.594C25.0583 60.594 24.7183 60.686 24.4103 60.87C24.1023 61.05 23.8503 61.296 23.6543 61.608C23.4583 61.916 23.3383 62.26 23.2943 62.64ZM29.388 66V57H30.228V66H29.388ZM31.6731 66V57H32.5131V66H31.6731ZM36.5514 66.156C35.9994 66.156 35.4954 66.014 35.0394 65.73C34.5874 65.446 34.2254 65.066 33.9534 64.59C33.6854 64.11 33.5514 63.58 33.5514 63C33.5514 62.56 33.6294 62.15 33.7854 61.77C33.9414 61.386 34.1554 61.05 34.4274 60.762C34.7034 60.47 35.0234 60.242 35.3874 60.078C35.7514 59.914 36.1394 59.832 36.5514 59.832C36.9954 59.832 37.4034 59.92 37.7754 60.096C38.1514 60.272 38.4734 60.518 38.7414 60.834C39.0134 61.15 39.2174 61.52 39.3534 61.944C39.4934 62.368 39.5514 62.826 39.5274 63.318H34.4394C34.4874 63.698 34.6074 64.038 34.7994 64.338C34.9954 64.638 35.2434 64.876 35.5434 65.052C35.8474 65.224 36.1834 65.312 36.5514 65.316C36.9514 65.316 37.3114 65.212 37.6314 65.004C37.9554 64.796 38.2154 64.51 38.4114 64.146L39.2634 64.344C39.0234 64.876 38.6614 65.312 38.1774 65.652C37.6934 65.988 37.1514 66.156 36.5514 66.156ZM34.4154 62.64H38.6814C38.6534 62.268 38.5394 61.928 38.3394 61.62C38.1434 61.308 37.8894 61.06 37.5774 60.876C37.2654 60.688 36.9234 60.594 36.5514 60.594C36.1794 60.594 35.8394 60.686 35.5314 60.87C35.2234 61.05 34.9714 61.296 34.7754 61.608C34.5794 61.916 34.4594 62.26 34.4154 62.64ZM45.7879 62.286V66H44.9479V62.454C44.9479 62.126 44.8679 61.828 44.7079 61.56C44.5479 61.292 44.3339 61.078 44.0659 60.918C43.7979 60.758 43.4999 60.678 43.1719 60.678C42.8479 60.678 42.5499 60.758 42.2779 60.918C42.0099 61.078 41.7959 61.292 41.6359 61.56C41.4759 61.828 41.3959 62.126 41.3959 62.454V66H40.5559V60H41.3959V60.828C41.6079 60.524 41.8839 60.282 42.2239 60.102C42.5639 59.922 42.9339 59.832 43.3339 59.832C43.7859 59.832 44.1979 59.942 44.5699 60.162C44.9419 60.382 45.2379 60.678 45.4579 61.05C45.6779 61.422 45.7879 61.834 45.7879 62.286ZM50.0555 60.84H48.6215L48.6155 66H47.7755L47.7815 60.84H46.6955V60H47.7815L47.7755 58.116H48.6155L48.6215 60H50.0555V60.84Z" fill="#333539"/>
</svg>
