<svg width="24" height="40" viewBox="0 0 24 40" fill="none" xmlns="http://www.w3.org/2000/svg">
<path d="M12.7641 18.3867C9.05327 18.3867 5.91821 15.3249 5.91821 11.7007C5.91821 11.5683 6.02573 11.4608 6.1582 11.4608H11.2585C11.3909 11.4608 11.4984 11.5683 11.4984 11.7007C11.4984 11.8332 11.3909 11.9407 11.2585 11.9407H6.40315C6.53771 15.1988 9.39582 17.9067 12.7641 17.9067C16.8772 17.9067 22.4058 12.6921 23.4243 11.6958C22.4264 10.6632 16.9267 5.22552 12.1453 5.55622C12.016 5.56758 11.8983 5.46599 11.8891 5.33351C11.8799 5.20136 11.9795 5.08664 12.1119 5.07736C14.4244 4.91481 17.1187 5.9578 20.1237 8.17339C22.3456 9.81171 23.9212 11.5216 23.9369 11.5385C24.0232 11.6326 24.0206 11.7775 23.9315 11.8687C23.9155 11.8851 22.3144 13.5122 20.1605 15.1163C17.246 17.2863 14.7577 18.3867 12.7641 18.3867Z" fill="#131612"/>
<path d="M11.2359 18.3867C9.07631 18.3867 6.53691 17.2858 3.68824 15.1147C1.58145 13.5088 0.0780002 11.8793 0.0632809 11.8631C-0.0194355 11.773 -0.0211978 11.6356 0.0587986 11.5435C0.073838 11.5263 1.57777 9.80305 3.68583 8.15033C6.54011 5.91235 9.08559 4.85752 11.2535 5.01543C14.6887 5.26566 18.242 7.83466 18.242 11.7007C18.2418 15.3249 15.0335 18.3867 11.2359 18.3867ZM0.566295 11.6964C0.992196 12.1398 2.29006 13.4463 3.98534 14.7374C5.88318 16.1832 8.68177 17.9067 11.2357 17.9067C14.7732 17.9067 17.7617 15.0646 17.7617 11.7007C17.7617 8.11401 14.4348 5.72836 11.2183 5.49413C6.75418 5.1671 1.50001 10.6737 0.566295 11.6964Z" fill="#131612"/>
<path d="M13.7656 12.6039C13.2362 12.6039 12.8057 12.1733 12.8057 11.6439C12.8057 11.1145 13.2362 10.684 13.7656 10.684C14.295 10.684 14.7256 11.1145 14.7256 11.6439C14.7256 12.1733 14.2949 12.6039 13.7656 12.6039ZM13.7656 11.1639C13.501 11.1639 13.2856 11.3793 13.2856 11.6439C13.2856 11.9085 13.501 12.1239 13.7656 12.1239C14.0302 12.1239 14.2456 11.9085 14.2456 11.6439C14.2456 11.3793 14.0302 11.1639 13.7656 11.1639Z" fill="#131612"/>
</svg>
