<svg width="61" height="78" viewBox="0 0 61 78" fill="none" xmlns="http://www.w3.org/2000/svg">
<rect width="61" height="78" rx="8" fill="white"/>
<circle cx="30.5" cy="28" r="19.75" fill="#FFCE94" stroke="#131612" stroke-width="0.5"/>
<circle cx="1" cy="1" r="0.5" transform="matrix(-1 0 0 1 27.5005 24.0001)" fill="#D9D9D9" stroke="#131612"/>
<circle cx="34.5" cy="25.0001" r="0.5" fill="#D9D9D9" stroke="#131612"/>
<path d="M22.5 31.5C27.4231 29.5 33.5769 29.5 38.5 31.5" stroke="#131612" stroke-width="0.5" stroke-linecap="round"/>
<path d="M21.72 66V57.6H26.634V58.44H22.56V61.08H26.058V61.92H22.56V66H21.72ZM31.8083 60H32.6483V66H31.8083L31.7783 64.884C31.5823 65.264 31.3083 65.572 30.9563 65.808C30.6043 66.04 30.1843 66.156 29.6963 66.156C29.2563 66.156 28.8443 66.074 28.4603 65.91C28.0763 65.742 27.7383 65.512 27.4463 65.22C27.1543 64.928 26.9263 64.59 26.7623 64.206C26.5983 63.822 26.5163 63.41 26.5163 62.97C26.5163 62.538 26.5963 62.132 26.7563 61.752C26.9203 61.372 27.1443 61.038 27.4283 60.75C27.7163 60.462 28.0483 60.238 28.4243 60.078C28.8043 59.914 29.2103 59.832 29.6423 59.832C30.1423 59.832 30.5783 59.952 30.9503 60.192C31.3223 60.428 31.6183 60.738 31.8383 61.122L31.8083 60ZM29.6783 65.34C30.1063 65.34 30.4743 65.236 30.7823 65.028C31.0903 64.816 31.3263 64.532 31.4903 64.176C31.6583 63.82 31.7423 63.428 31.7423 63C31.7423 62.56 31.6583 62.164 31.4903 61.812C31.3223 61.456 31.0843 61.174 30.7763 60.966C30.4683 60.758 30.1023 60.654 29.6783 60.654C29.2543 60.654 28.8663 60.76 28.5143 60.972C28.1663 61.18 27.8883 61.462 27.6803 61.818C27.4763 62.174 27.3743 62.568 27.3743 63C27.3743 63.436 27.4803 63.832 27.6923 64.188C27.9043 64.54 28.1843 64.82 28.5323 65.028C28.8843 65.236 29.2663 65.34 29.6783 65.34ZM33.8489 60H34.6889V66H33.8489V60ZM34.2749 58.95C34.1389 58.95 34.0229 58.906 33.9269 58.818C33.8349 58.726 33.7889 58.612 33.7889 58.476C33.7889 58.34 33.8349 58.228 33.9269 58.14C34.0229 58.048 34.1389 58.002 34.2749 58.002C34.4069 58.002 34.5189 58.048 34.6109 58.14C34.7069 58.228 34.7549 58.34 34.7549 58.476C34.7549 58.612 34.7089 58.726 34.6169 58.818C34.5249 58.906 34.4109 58.95 34.2749 58.95ZM36.1106 66V60H36.9506V60.828C37.1626 60.524 37.4386 60.282 37.7786 60.102C38.1186 59.922 38.4886 59.832 38.8886 59.832C39.1206 59.832 39.3446 59.862 39.5606 59.922L39.2186 60.756C39.0506 60.704 38.8866 60.678 38.7266 60.678C38.4026 60.678 38.1046 60.758 37.8326 60.918C37.5646 61.078 37.3506 61.292 37.1906 61.56C37.0306 61.828 36.9506 62.126 36.9506 62.454V66H36.1106Z" fill="#333539"/>
</svg>
