<svg width="61" height="78" viewBox="0 0 61 78" fill="none" xmlns="http://www.w3.org/2000/svg">
<rect width="61" height="78" rx="8" fill="white"/>
<circle cx="30.5" cy="28" r="19.75" fill="#FFFCB0" stroke="black" stroke-width="0.5"/>
<circle cx="1" cy="1" r="0.5" transform="matrix(-1 0 0 1 27.5005 24.0001)" fill="#D9D9D9" stroke="#131612"/>
<circle cx="34.5" cy="25.0001" r="0.5" fill="#D9D9D9" stroke="#131612"/>
<path d="M22.5 30C27.4231 32 33.5769 32 38.5 30" stroke="#131612" stroke-width="0.5" stroke-linecap="round"/>
<path d="M20.114 66.156C19.538 66.156 18.998 66.044 18.494 65.82C17.994 65.592 17.556 65.278 17.18 64.878C16.804 64.474 16.51 64.01 16.298 63.486C16.086 62.958 15.98 62.394 15.98 61.794C15.98 61.182 16.09 60.612 16.31 60.084C16.53 59.556 16.832 59.096 17.216 58.704C17.6 58.308 18.04 58 18.536 57.78C19.036 57.56 19.566 57.45 20.126 57.45C20.77 57.45 21.378 57.6 21.95 57.9C22.526 58.2 23.014 58.626 23.414 59.178L22.664 59.586C22.344 59.166 21.958 58.844 21.506 58.62C21.058 58.396 20.596 58.284 20.12 58.284C19.668 58.284 19.242 58.376 18.842 58.56C18.446 58.74 18.096 58.992 17.792 59.316C17.488 59.64 17.25 60.014 17.078 60.438C16.906 60.862 16.82 61.318 16.82 61.806C16.82 62.29 16.906 62.744 17.078 63.168C17.25 63.592 17.486 63.966 17.786 64.29C18.09 64.61 18.442 64.862 18.842 65.046C19.242 65.226 19.67 65.316 20.126 65.316C20.502 65.316 20.858 65.252 21.194 65.124C21.534 64.992 21.844 64.808 22.124 64.572C22.404 64.336 22.64 64.06 22.832 63.744C23.028 63.428 23.17 63.084 23.258 62.712H20.99V61.95H24.236C24.224 62.53 24.108 63.074 23.888 63.582C23.668 64.09 23.368 64.538 22.988 64.926C22.612 65.31 22.178 65.612 21.686 65.832C21.198 66.048 20.674 66.156 20.114 66.156ZM27.9889 66.156C27.4369 66.156 26.9329 66.014 26.4769 65.73C26.0249 65.446 25.6629 65.066 25.3909 64.59C25.1229 64.11 24.9889 63.58 24.9889 63C24.9889 62.56 25.0669 62.15 25.2229 61.77C25.3789 61.386 25.5929 61.05 25.8649 60.762C26.1409 60.47 26.4609 60.242 26.8249 60.078C27.1889 59.914 27.5769 59.832 27.9889 59.832C28.5409 59.832 29.0429 59.974 29.4949 60.258C29.9509 60.542 30.3129 60.924 30.5809 61.404C30.8529 61.884 30.9889 62.416 30.9889 63C30.9889 63.436 30.9109 63.844 30.7549 64.224C30.5989 64.604 30.3829 64.94 30.1069 65.232C29.8349 65.52 29.5169 65.746 29.1529 65.91C28.7929 66.074 28.4049 66.156 27.9889 66.156ZM27.9889 65.316C28.3969 65.316 28.7629 65.21 29.0869 64.998C29.4149 64.782 29.6729 64.498 29.8609 64.146C30.0529 63.794 30.1489 63.412 30.1489 63C30.1489 62.58 30.0529 62.194 29.8609 61.842C29.6689 61.486 29.4089 61.202 29.0809 60.99C28.7569 60.778 28.3929 60.672 27.9889 60.672C27.5809 60.672 27.2129 60.78 26.8849 60.996C26.5609 61.208 26.3029 61.49 26.1109 61.842C25.9229 62.194 25.8289 62.58 25.8289 63C25.8289 63.432 25.9269 63.824 26.1229 64.176C26.3189 64.524 26.5809 64.802 26.9089 65.01C27.2369 65.214 27.5969 65.316 27.9889 65.316ZM34.5866 66.156C34.0346 66.156 33.5306 66.014 33.0746 65.73C32.6226 65.446 32.2606 65.066 31.9886 64.59C31.7206 64.11 31.5866 63.58 31.5866 63C31.5866 62.56 31.6646 62.15 31.8206 61.77C31.9766 61.386 32.1906 61.05 32.4626 60.762C32.7386 60.47 33.0586 60.242 33.4226 60.078C33.7866 59.914 34.1746 59.832 34.5866 59.832C35.1386 59.832 35.6406 59.974 36.0926 60.258C36.5486 60.542 36.9106 60.924 37.1786 61.404C37.4506 61.884 37.5866 62.416 37.5866 63C37.5866 63.436 37.5086 63.844 37.3526 64.224C37.1966 64.604 36.9806 64.94 36.7046 65.232C36.4326 65.52 36.1146 65.746 35.7506 65.91C35.3906 66.074 35.0026 66.156 34.5866 66.156ZM34.5866 65.316C34.9946 65.316 35.3606 65.21 35.6846 64.998C36.0126 64.782 36.2706 64.498 36.4586 64.146C36.6506 63.794 36.7466 63.412 36.7466 63C36.7466 62.58 36.6506 62.194 36.4586 61.842C36.2666 61.486 36.0066 61.202 35.6786 60.99C35.3546 60.778 34.9906 60.672 34.5866 60.672C34.1786 60.672 33.8106 60.78 33.4826 60.996C33.1586 61.208 32.9006 61.49 32.7086 61.842C32.5206 62.194 32.4266 62.58 32.4266 63C32.4266 63.432 32.5246 63.824 32.7206 64.176C32.9166 64.524 33.1786 64.802 33.5066 65.01C33.8346 65.214 34.1946 65.316 34.5866 65.316ZM43.4822 57H44.3222V66H43.4822V64.878C43.2742 65.262 42.9882 65.572 42.6242 65.808C42.2642 66.04 41.8362 66.156 41.3402 66.156C40.9042 66.156 40.4962 66.074 40.1162 65.91C39.7362 65.746 39.4002 65.52 39.1082 65.232C38.8202 64.94 38.5942 64.604 38.4302 64.224C38.2662 63.844 38.1842 63.436 38.1842 63C38.1842 62.564 38.2662 62.156 38.4302 61.776C38.5942 61.392 38.8202 61.056 39.1082 60.768C39.4002 60.476 39.7362 60.248 40.1162 60.084C40.4962 59.92 40.9042 59.838 41.3402 59.838C41.8362 59.838 42.2642 59.956 42.6242 60.192C42.9882 60.424 43.2742 60.73 43.4822 61.11V57ZM41.3462 65.34C41.7742 65.34 42.1422 65.236 42.4502 65.028C42.7582 64.816 42.9942 64.532 43.1582 64.176C43.3262 63.82 43.4102 63.428 43.4102 63C43.4102 62.56 43.3262 62.164 43.1582 61.812C42.9902 61.456 42.7522 61.174 42.4442 60.966C42.1362 60.758 41.7702 60.654 41.3462 60.654C40.9222 60.654 40.5362 60.76 40.1882 60.972C39.8402 61.18 39.5622 61.462 39.3542 61.818C39.1462 62.174 39.0422 62.568 39.0422 63C39.0422 63.436 39.1482 63.832 39.3602 64.188C39.5722 64.54 39.8522 64.82 40.2002 65.028C40.5522 65.236 40.9342 65.34 41.3462 65.34Z" fill="#333539"/>
</svg>
