<svg width="446" height="40" viewBox="0 0 446 40" fill="none" xmlns="http://www.w3.org/2000/svg">
<rect width="446" height="40" rx="8" fill="#F5F5F5"/>
<path d="M16 14V22.5M16 25H16.01" stroke="#131612" stroke-linecap="round" stroke-linejoin="round"/>
<path d="M20.0098 14V22.5M20.0098 25H20.0198" stroke="black" stroke-linecap="round" stroke-linejoin="round"/>
<path d="M24.0195 14V22.5M24.0195 25H24.0295" stroke="black" stroke-linecap="round" stroke-linejoin="round"/>
<path d="M36.96 26V14.8H38.176L44.088 23.976V14.8H45.208V26H44L38.08 16.824V26H36.96ZM50.5894 26.208C49.8534 26.208 49.1814 26.0187 48.5734 25.64C47.9707 25.2613 47.488 24.7547 47.1254 24.12C46.768 23.48 46.5894 22.7733 46.5894 22C46.5894 21.4133 46.6934 20.8667 46.9014 20.36C47.1094 19.848 47.3947 19.4 47.7574 19.016C48.1254 18.6267 48.552 18.3227 49.0374 18.104C49.5227 17.8853 50.04 17.776 50.5894 17.776C51.1814 17.776 51.7254 17.8933 52.2214 18.128C52.7227 18.3627 53.152 18.6907 53.5094 19.112C53.872 19.5333 54.144 20.0267 54.3254 20.592C54.512 21.1573 54.5894 21.768 54.5574 22.424H47.7734C47.8374 22.9307 47.9974 23.384 48.2534 23.784C48.5147 24.184 48.8454 24.5013 49.2454 24.736C49.6507 24.9653 50.0987 25.0827 50.5894 25.088C51.1227 25.088 51.6027 24.9493 52.0294 24.672C52.4614 24.3947 52.808 24.0133 53.0694 23.528L54.2054 23.792C53.8854 24.5013 53.4027 25.0827 52.7574 25.536C52.112 25.984 51.3894 26.208 50.5894 26.208ZM47.7414 21.52H53.4294C53.392 21.024 53.24 20.5707 52.9734 20.16C52.712 19.744 52.3734 19.4133 51.9574 19.168C51.5414 18.9173 51.0854 18.792 50.5894 18.792C50.0934 18.792 49.64 18.9147 49.2294 19.16C48.8187 19.4 48.4827 19.728 48.2214 20.144C47.96 20.5547 47.8 21.0133 47.7414 21.52ZM58.937 26H57.785L55.105 18H56.201L58.377 24.448L60.537 18H61.721L63.881 24.448L66.041 18H67.145L64.465 26H63.305L61.113 19.488L58.937 26ZM76.1808 14.8H77.5728L81.6528 26H80.4608L79.5888 23.6H74.1728L73.3008 26H72.1088L76.1808 14.8ZM74.5808 22.48H79.1728L76.8768 16.176L74.5808 22.48ZM88.172 23.992L89.172 24.536C88.8093 25.0427 88.348 25.448 87.788 25.752C87.2333 26.056 86.6307 26.208 85.98 26.208C85.244 26.208 84.572 26.0187 83.964 25.64C83.3613 25.2613 82.8787 24.7547 82.516 24.12C82.1587 23.48 81.98 22.7733 81.98 22C81.98 21.4133 82.084 20.8667 82.292 20.36C82.5 19.848 82.7853 19.4 83.148 19.016C83.516 18.6267 83.9427 18.3227 84.428 18.104C84.9133 17.8853 85.4307 17.776 85.98 17.776C86.6307 17.776 87.2333 17.928 87.788 18.232C88.348 18.536 88.8093 18.944 89.172 19.456L88.172 19.992C87.8947 19.64 87.5613 19.3707 87.172 19.184C86.7827 18.992 86.3853 18.896 85.98 18.896C85.4413 18.896 84.9533 19.04 84.516 19.328C84.0787 19.6107 83.732 19.9867 83.476 20.456C83.2253 20.9253 83.1 21.44 83.1 22C83.1 22.56 83.228 23.0747 83.484 23.544C83.7453 24.0133 84.0947 24.3893 84.532 24.672C84.9693 24.9493 85.452 25.088 85.98 25.088C86.4173 25.088 86.828 24.9867 87.212 24.784C87.596 24.5813 87.916 24.3173 88.172 23.992ZM96.2189 23.992L97.2189 24.536C96.8562 25.0427 96.3949 25.448 95.8349 25.752C95.2802 26.056 94.6775 26.208 94.0269 26.208C93.2909 26.208 92.6189 26.0187 92.0109 25.64C91.4082 25.2613 90.9255 24.7547 90.5629 24.12C90.2055 23.48 90.0269 22.7733 90.0269 22C90.0269 21.4133 90.1309 20.8667 90.3389 20.36C90.5469 19.848 90.8322 19.4 91.1949 19.016C91.5629 18.6267 91.9895 18.3227 92.4749 18.104C92.9602 17.8853 93.4775 17.776 94.0269 17.776C94.6775 17.776 95.2802 17.928 95.8349 18.232C96.3949 18.536 96.8562 18.944 97.2189 19.456L96.2189 19.992C95.9415 19.64 95.6082 19.3707 95.2189 19.184C94.8295 18.992 94.4322 18.896 94.0269 18.896C93.4882 18.896 93.0002 19.04 92.5629 19.328C92.1255 19.6107 91.7789 19.9867 91.5229 20.456C91.2722 20.9253 91.1469 21.44 91.1469 22C91.1469 22.56 91.2749 23.0747 91.5309 23.544C91.7922 24.0133 92.1415 24.3893 92.5789 24.672C93.0162 24.9493 93.4989 25.088 94.0269 25.088C94.4642 25.088 94.8749 24.9867 95.2589 24.784C95.6429 24.5813 95.9629 24.3173 96.2189 23.992ZM102.074 26.208C101.338 26.208 100.666 26.0187 100.058 25.64C99.4551 25.2613 98.9724 24.7547 98.6098 24.12C98.2524 23.48 98.0738 22.7733 98.0738 22C98.0738 21.4133 98.1778 20.8667 98.3858 20.36C98.5938 19.848 98.8791 19.4 99.2418 19.016C99.6098 18.6267 100.036 18.3227 100.522 18.104C101.007 17.8853 101.524 17.776 102.074 17.776C102.666 17.776 103.21 17.8933 103.706 18.128C104.207 18.3627 104.636 18.6907 104.994 19.112C105.356 19.5333 105.628 20.0267 105.81 20.592C105.996 21.1573 106.074 21.768 106.042 22.424H99.2578C99.3218 22.9307 99.4818 23.384 99.7378 23.784C99.9991 24.184 100.33 24.5013 100.73 24.736C101.135 24.9653 101.583 25.0827 102.074 25.088C102.607 25.088 103.087 24.9493 103.514 24.672C103.946 24.3947 104.292 24.0133 104.554 23.528L105.69 23.792C105.37 24.5013 104.887 25.0827 104.242 25.536C103.596 25.984 102.874 26.208 102.074 26.208ZM99.2258 21.52H104.914C104.876 21.024 104.724 20.5707 104.458 20.16C104.196 19.744 103.858 19.4133 103.442 19.168C103.026 18.9173 102.57 18.792 102.074 18.792C101.578 18.792 101.124 18.9147 100.714 19.16C100.303 19.4 99.9671 19.728 99.7057 20.144C99.4444 20.5547 99.2844 21.0133 99.2258 21.52ZM108.533 30H107.413V18H108.533V19.496C108.81 18.9893 109.189 18.5787 109.669 18.264C110.149 17.9493 110.72 17.792 111.381 17.792C111.962 17.792 112.506 17.9013 113.013 18.12C113.525 18.3387 113.973 18.6427 114.357 19.032C114.741 19.416 115.042 19.8613 115.261 20.368C115.48 20.8747 115.589 21.4187 115.589 22C115.589 22.5813 115.48 23.128 115.261 23.64C115.042 24.152 114.741 24.6027 114.357 24.992C113.973 25.376 113.525 25.6773 113.013 25.896C112.506 26.1147 111.962 26.224 111.381 26.224C110.72 26.224 110.149 26.0667 109.669 25.752C109.189 25.4373 108.81 25.0267 108.533 24.52V30ZM111.373 18.88C110.813 18.88 110.325 19.0213 109.909 19.304C109.498 19.5813 109.181 19.9547 108.957 20.424C108.733 20.8933 108.621 21.4187 108.621 22C108.621 22.5707 108.73 23.0933 108.949 23.568C109.173 24.0427 109.49 24.4213 109.901 24.704C110.317 24.9867 110.808 25.128 111.373 25.128C111.928 25.128 112.437 24.9893 112.901 24.712C113.37 24.4347 113.746 24.0613 114.029 23.592C114.312 23.1173 114.453 22.5867 114.453 22C114.453 21.4293 114.314 20.9093 114.037 20.44C113.76 19.9653 113.389 19.5867 112.925 19.304C112.461 19.0213 111.944 18.88 111.373 18.88ZM120.892 19.12H118.98L118.972 26H117.852L117.86 19.12H116.412V18H117.86L117.852 15.488H118.972L118.98 18H120.892V19.12ZM128.677 18H129.797V26H128.677L128.637 24.512C128.375 25.0187 128.01 25.4293 127.541 25.744C127.071 26.0533 126.511 26.208 125.861 26.208C125.274 26.208 124.725 26.0987 124.213 25.88C123.701 25.656 123.25 25.3493 122.861 24.96C122.471 24.5707 122.167 24.12 121.949 23.608C121.73 23.096 121.621 22.5467 121.621 21.96C121.621 21.384 121.727 20.8427 121.941 20.336C122.159 19.8293 122.458 19.384 122.837 19C123.221 18.616 123.663 18.3173 124.165 18.104C124.671 17.8853 125.213 17.776 125.789 17.776C126.455 17.776 127.037 17.936 127.533 18.256C128.029 18.5707 128.423 18.984 128.717 19.496L128.677 18ZM125.837 25.12C126.407 25.12 126.898 24.9813 127.309 24.704C127.719 24.4213 128.034 24.0427 128.253 23.568C128.477 23.0933 128.589 22.5707 128.589 22C128.589 21.4133 128.477 20.8853 128.253 20.416C128.029 19.9413 127.711 19.5653 127.301 19.288C126.89 19.0107 126.402 18.872 125.837 18.872C125.271 18.872 124.754 19.0133 124.285 19.296C123.821 19.5733 123.45 19.9493 123.173 20.424C122.901 20.8987 122.765 21.424 122.765 22C122.765 22.5813 122.906 23.1093 123.189 23.584C123.471 24.0533 123.845 24.4267 124.309 24.704C124.778 24.9813 125.287 25.12 125.837 25.12ZM138.374 21.048V26H137.254V21.272C137.254 20.8347 137.147 20.4373 136.934 20.08C136.72 19.7227 136.435 19.4373 136.078 19.224C135.72 19.0107 135.323 18.904 134.886 18.904C134.454 18.904 134.056 19.0107 133.694 19.224C133.336 19.4373 133.051 19.7227 132.838 20.08C132.624 20.4373 132.518 20.8347 132.518 21.272V26H131.398V18H132.518V19.104C132.8 18.6987 133.168 18.376 133.622 18.136C134.075 17.896 134.568 17.776 135.102 17.776C135.704 17.776 136.254 17.9227 136.75 18.216C137.246 18.5093 137.64 18.904 137.934 19.4C138.227 19.896 138.374 20.4453 138.374 21.048ZM145.531 23.992L146.531 24.536C146.169 25.0427 145.707 25.448 145.147 25.752C144.593 26.056 143.99 26.208 143.339 26.208C142.603 26.208 141.931 26.0187 141.323 25.64C140.721 25.2613 140.238 24.7547 139.875 24.12C139.518 23.48 139.339 22.7733 139.339 22C139.339 21.4133 139.443 20.8667 139.651 20.36C139.859 19.848 140.145 19.4 140.507 19.016C140.875 18.6267 141.302 18.3227 141.787 18.104C142.273 17.8853 142.79 17.776 143.339 17.776C143.99 17.776 144.593 17.928 145.147 18.232C145.707 18.536 146.169 18.944 146.531 19.456L145.531 19.992C145.254 19.64 144.921 19.3707 144.531 19.184C144.142 18.992 143.745 18.896 143.339 18.896C142.801 18.896 142.313 19.04 141.875 19.328C141.438 19.6107 141.091 19.9867 140.835 20.456C140.585 20.9253 140.459 21.44 140.459 22C140.459 22.56 140.587 23.0747 140.843 23.544C141.105 24.0133 141.454 24.3893 141.891 24.672C142.329 24.9493 142.811 25.088 143.339 25.088C143.777 25.088 144.187 24.9867 144.571 24.784C144.955 24.5813 145.275 24.3173 145.531 23.992ZM151.386 26.208C150.65 26.208 149.978 26.0187 149.37 25.64C148.768 25.2613 148.285 24.7547 147.922 24.12C147.565 23.48 147.386 22.7733 147.386 22C147.386 21.4133 147.49 20.8667 147.698 20.36C147.906 19.848 148.192 19.4 148.554 19.016C148.922 18.6267 149.349 18.3227 149.834 18.104C150.32 17.8853 150.837 17.776 151.386 17.776C151.978 17.776 152.522 17.8933 153.018 18.128C153.52 18.3627 153.949 18.6907 154.306 19.112C154.669 19.5333 154.941 20.0267 155.122 20.592C155.309 21.1573 155.386 21.768 155.354 22.424H148.57C148.634 22.9307 148.794 23.384 149.05 23.784C149.312 24.184 149.642 24.5013 150.042 24.736C150.448 24.9653 150.896 25.0827 151.386 25.088C151.92 25.088 152.4 24.9493 152.826 24.672C153.258 24.3947 153.605 24.0133 153.866 23.528L155.002 23.792C154.682 24.5013 154.2 25.0827 153.554 25.536C152.909 25.984 152.186 26.208 151.386 26.208ZM148.538 21.52H154.226C154.189 21.024 154.037 20.5707 153.77 20.16C153.509 19.744 153.17 19.4133 152.754 19.168C152.338 18.9173 151.882 18.792 151.386 18.792C150.89 18.792 150.437 18.9147 150.026 19.16C149.616 19.4 149.28 19.728 149.018 20.144C148.757 20.5547 148.597 21.0133 148.538 21.52Z" fill="#131612"/>
<rect x="418.5" y="10.5" width="19" height="19" rx="9.5" fill="#678561"/>
<rect x="418.5" y="10.5" width="19" height="19" rx="9.5" stroke="#678561"/>
<path d="M424 20H428M428 20H432M428 20V16M428 20V24" stroke="white" stroke-linecap="round" stroke-linejoin="round"/>
</svg>
