<svg width="56" height="57" viewBox="0 0 56 57" fill="none" xmlns="http://www.w3.org/2000/svg">
<path d="M27.9999 5.16675V9.83341M11.5032 12.0034L14.7932 15.2934M46.6666 28.5001H51.3332M44.4966 12.0034L41.2066 15.2934M37.2096 30.0167C37.4967 28.2772 37.2853 26.492 36.5999 24.8677C35.9144 23.2433 34.7828 21.8464 33.3363 20.8385C31.8897 19.8307 30.1872 19.2532 28.426 19.1729C26.6648 19.0926 24.9169 19.5127 23.3846 20.3847M30.3332 51.8334H16.3332C14.1258 51.833 11.9639 51.2063 10.0984 50.0262C8.23293 48.846 6.74054 47.1609 5.79457 45.1665C4.84859 43.172 4.48783 40.9502 4.75421 38.7589C5.02058 36.5676 5.90315 34.4969 7.29941 32.7872C8.69567 31.0775 10.5483 29.799 12.6422 29.1001C14.7361 28.4013 16.9852 28.3109 19.1284 28.8393C21.2717 29.3677 23.221 30.4933 24.75 32.0854C26.2791 33.6774 27.3251 35.6706 27.7666 37.8334H30.3332C32.1898 37.8334 33.9702 38.5709 35.283 39.8837C36.5957 41.1964 37.3332 42.9769 37.3332 44.8334C37.3332 46.6899 36.5957 48.4704 35.283 49.7832C33.9702 51.0959 32.1898 51.8334 30.3332 51.8334Z" stroke="white" stroke-linecap="round" stroke-linejoin="round"/>
</svg>
