<svg width="56" height="57" viewBox="0 0 56 57" fill="none" xmlns="http://www.w3.org/2000/svg">
<path d="M23.5666 21.4999C24.1169 18.2441 25.8003 15.2875 28.3195 13.1527C30.8386 11.0178 34.0312 9.8421 37.3332 9.83325C35.4767 11.6898 34.4337 14.2077 34.4337 16.8333C34.4337 18.1333 34.6898 19.4206 35.1873 20.6216C35.6848 21.8227 36.414 22.914 37.3332 23.8333C38.2525 24.7525 39.3438 25.4817 40.5449 25.9792C41.7459 26.4767 43.0332 26.7327 44.3332 26.7327C46.9587 26.7327 49.4767 25.6898 51.3332 23.8333C51.3336 26.2911 50.6869 28.7057 49.4581 30.8344C48.2293 32.963 46.4618 34.7307 44.3332 35.9596M30.3332 37.8333C32.1898 37.8333 33.9702 38.5707 35.283 39.8835C36.5957 41.1963 37.3332 42.9767 37.3332 44.8333C37.3332 46.6898 36.5957 48.4702 35.283 49.783C33.9702 51.0958 32.1898 51.8333 30.3332 51.8333H16.3332C14.1258 51.8328 11.9639 51.2061 10.0984 50.026C8.23293 48.8459 6.74054 47.1607 5.79457 45.1663C4.84859 43.1719 4.48783 40.95 4.75421 38.7587C5.02058 36.5675 5.90315 34.4967 7.29941 32.787C8.69567 31.0773 10.5483 29.7988 12.6422 29.1C14.7361 28.4012 16.9852 28.3107 19.1284 28.8391C21.2717 29.3675 23.221 30.4932 24.75 32.0852C26.2791 33.6773 27.3251 35.6704 27.7666 37.8333H30.3332Z" stroke="white" stroke-linecap="round" stroke-linejoin="round"/>
</svg>
