<svg width="20" height="20" viewBox="0 0 20 20" fill="none" xmlns="http://www.w3.org/2000/svg">
<g id="ic:bell-notification-on">
<circle id="Ellipse 7" cx="15" cy="4" r="3" fill="#EFD02A"/>
<path id="Vector" d="M15.1117 9.16669C15.5958 13.6459 17.5 15 17.5 15H2.5C2.5 15 5 13.2225 5 7.00002C5 5.58585 5.52667 4.22919 6.46417 3.22919C7.4025 2.22919 8.675 1.66669 10 1.66669C10.2808 1.66669 10.56 1.69169 10.8333 1.74169M11.4417 17.5C11.2953 17.7528 11.0851 17.9627 10.8321 18.1085C10.579 18.2544 10.2921 18.3312 10 18.3312C9.70792 18.3312 9.42097 18.2544 9.16794 18.1085C8.9149 17.9627 8.70467 17.7528 8.55833 17.5" stroke="#131612" stroke-linecap="round" stroke-linejoin="round"/>
</g>
</svg>
