<svg width="61" height="78" viewBox="0 0 61 78" fill="none" xmlns="http://www.w3.org/2000/svg">
<rect width="61" height="78" rx="8" fill="white"/>
<circle cx="30.5" cy="28" r="19.75" fill="#A4DDE4" stroke="black" stroke-width="0.5"/>
<circle cx="1" cy="1" r="0.5" transform="matrix(-1 0 0 1 27.5005 24.0001)" fill="#D9D9D9" stroke="#131612"/>
<circle cx="34.5" cy="25.0001" r="0.5" fill="#D9D9D9" stroke="#131612"/>
<path d="M22.5 31.9999C24.4762 31.9999 36.0273 31.9998 38.5 31.9999" stroke="#131612" stroke-width="0.5" stroke-linecap="round"/>
<path d="M27.12 66.156C26.552 66.156 26.018 66.044 25.518 65.82C25.018 65.592 24.578 65.278 24.198 64.878C23.818 64.478 23.52 64.016 23.304 63.492C23.088 62.964 22.98 62.4 22.98 61.8C22.98 61.2 23.088 60.638 23.304 60.114C23.52 59.586 23.818 59.122 24.198 58.722C24.578 58.322 25.018 58.01 25.518 57.786C26.018 57.558 26.552 57.444 27.12 57.444C27.692 57.444 28.228 57.558 28.728 57.786C29.228 58.01 29.668 58.322 30.048 58.722C30.428 59.122 30.724 59.586 30.936 60.114C31.152 60.638 31.26 61.2 31.26 61.8C31.26 62.4 31.152 62.964 30.936 63.492C30.724 64.016 30.428 64.478 30.048 64.878C29.668 65.278 29.228 65.592 28.728 65.82C28.228 66.044 27.692 66.156 27.12 66.156ZM27.12 65.316C27.58 65.316 28.008 65.224 28.404 65.04C28.804 64.852 29.154 64.596 29.454 64.272C29.758 63.948 29.994 63.574 30.162 63.15C30.334 62.726 30.42 62.276 30.42 61.8C30.42 61.32 30.334 60.868 30.162 60.444C29.99 60.016 29.752 59.642 29.448 59.322C29.148 58.998 28.798 58.744 28.398 58.56C28.002 58.376 27.576 58.284 27.12 58.284C26.66 58.284 26.23 58.378 25.83 58.566C25.434 58.75 25.084 59.004 24.78 59.328C24.48 59.652 24.244 60.026 24.072 60.45C23.904 60.874 23.82 61.324 23.82 61.8C23.82 62.284 23.906 62.738 24.078 63.162C24.25 63.586 24.486 63.96 24.786 64.284C25.09 64.608 25.44 64.862 25.836 65.046C26.236 65.226 26.664 65.316 27.12 65.316ZM37.8718 66H36.7858L34.0318 62.226L33.3178 63.084V66H32.4778V57.6H33.3178V61.776L36.8158 57.6H37.9138L34.5838 61.566L37.8718 66Z" fill="#333539"/>
</svg>
