<svg width="24" height="28" viewBox="0 0 24 28" fill="none" xmlns="http://www.w3.org/2000/svg">
<path d="M12.0118 27.7314C11.9321 27.7314 11.8558 27.6998 11.7993 27.6435L0.0882498 15.9322C-0.0290911 15.8149 -0.0290911 15.6249 0.0882498 15.5075L11.7761 3.8197C11.8934 3.70235 12.0834 3.70235 12.2008 3.8197L19.1049 10.7236C19.2222 10.8409 19.2222 11.0309 19.1049 11.1483C18.9875 11.2656 18.7975 11.2656 18.6802 11.1483L11.9885 4.45667L0.725414 15.7198L12.0118 27.0063L23.2751 15.743L21.8215 14.2895C21.7042 14.1721 21.7042 13.9821 21.8215 13.8648C21.9389 13.7474 22.1289 13.7474 22.2462 13.8648L23.912 15.5306C24.0294 15.6479 24.0294 15.8379 23.912 15.9553L12.224 27.6433C12.1677 27.6995 12.0913 27.7314 12.0118 27.7314Z" fill="#131612"/>
<path d="M12.0117 23.9997C11.9348 23.9997 11.8579 23.9705 11.7993 23.9118L3.17671 15.2893C3.05937 15.1719 3.05937 14.9819 3.17671 14.8646C3.29405 14.7472 3.48408 14.7472 3.60142 14.8646L12.0115 23.2746L23.2748 12.0115L11.9883 0.725172L0.72517 11.9883L2.1687 13.4318C2.28604 13.5492 2.28604 13.7392 2.1687 13.8565C2.05136 13.9739 1.86133 13.9739 1.74399 13.8565L0.0880056 12.2005C-0.0293352 12.0832 -0.0293352 11.8932 0.0880056 11.7758L11.7758 0.0880056C11.8932 -0.0293352 12.0832 -0.0293352 12.2005 0.0880056L23.9118 11.7991C23.9681 11.8553 23.9997 11.9318 23.9997 12.0113C23.9997 12.091 23.9681 12.1673 23.9118 12.2238L12.2238 23.9116C12.1653 23.9705 12.0886 23.9997 12.0117 23.9997Z" fill="#131612"/>
<path d="M11.9999 15.0674C11.6921 15.0674 11.3841 14.9502 11.1497 14.7158C10.6809 14.2468 10.6809 13.4841 11.1497 13.0151C11.6186 12.5464 12.3813 12.546 12.8503 13.0151C13.3193 13.4841 13.3193 14.2468 12.8503 14.7158C12.6158 14.9504 12.3079 15.0674 11.9999 15.0674ZM11.9999 13.264C11.8457 13.264 11.6917 13.3227 11.5744 13.44C11.3399 13.6747 11.3399 14.0566 11.5744 14.2913C11.8093 14.5263 12.1911 14.5259 12.4256 14.2913C12.6603 14.0566 12.6603 13.6747 12.4256 13.44C12.3083 13.3227 12.1543 13.264 11.9999 13.264Z" fill="#131612"/>
</svg>
