<svg width="24" height="40" viewBox="0 0 24 40" fill="none" xmlns="http://www.w3.org/2000/svg">
<path d="M11.9884 24C11.9094 24 11.8304 23.9692 11.7703 23.9079L0.288587 12.2334C0.230753 12.1746 0.198242 12.0946 0.198242 12.0116C0.198242 11.9283 0.230753 11.8485 0.288587 11.7895L11.7931 0.0919741C11.9137 -0.030658 12.109 -0.030658 12.2296 0.0919741L23.7113 11.7665C23.7691 11.8253 23.8017 11.9053 23.8017 11.9883C23.8017 12.0716 23.7691 12.1514 23.7113 12.2104L12.2068 23.9079C12.1463 23.9695 12.0675 24 11.9884 24ZM0.943283 12.0116L11.9884 23.2422L23.0564 11.9885L12.0113 0.757872L0.943283 12.0116Z" fill="white"/>
<path d="M12.0001 24.0001C5.38323 24.0001 0 18.5932 0 11.9474C0 11.7742 0.138306 11.6335 0.308719 11.6335C0.479132 11.6335 0.617438 11.7742 0.617438 11.9474C0.617438 18.2473 5.72364 23.3723 12.0001 23.3723C18.2764 23.3723 23.3826 18.2473 23.3826 11.9474C23.3826 11.7742 23.5209 11.6335 23.6913 11.6335C23.8617 11.6335 24 11.7742 24 11.9474C23.9998 18.5934 18.6168 24.0001 12.0001 24.0001Z" fill="white"/>
<path d="M11.9943 22.3873H11.9939C11.8234 22.3871 11.6853 22.2465 11.6855 22.073L11.6971 10.387C11.6973 10.2139 11.8354 10.0735 12.0058 10.0735H12.0062C12.1766 10.0737 12.3147 10.2143 12.3145 10.3878L12.303 22.0739C12.3028 22.2469 12.1647 22.3873 11.9943 22.3873Z" fill="white"/>
<path d="M12.0005 8.9463C11.3195 8.9463 10.7656 8.38315 10.7656 7.69068C10.7656 6.9982 11.3195 6.43506 12.0005 6.43506C12.6815 6.43506 13.2354 6.9982 13.2354 7.69068C13.2354 8.38315 12.6813 8.9463 12.0005 8.9463ZM12.0005 7.06287C11.6601 7.06287 11.3831 7.34455 11.3831 7.69068C11.3831 8.03681 11.6601 8.31849 12.0005 8.31849C12.3409 8.31849 12.6179 8.03681 12.6179 7.69068C12.6179 7.34455 12.3409 7.06287 12.0005 7.06287Z" fill="white"/>
</svg>
