<svg width="61" height="78" viewBox="0 0 61 78" fill="none" xmlns="http://www.w3.org/2000/svg">
<rect width="61" height="78" rx="8" fill="white"/>
<circle cx="30.5" cy="28" r="19.75" fill="#F3B9AF" stroke="black" stroke-width="0.5"/>
<path d="M22.5 35C25.5 28.3333 35.5 28.3333 38.5 35" stroke="#131612" stroke-width="0.5" stroke-linecap="round"/>
<circle cx="1" cy="1" r="0.5" transform="matrix(-1 0 0 1 27.5005 24.0001)" fill="#D9D9D9" stroke="#131612"/>
<circle cx="34.5" cy="25.0001" r="0.5" fill="#D9D9D9" stroke="#131612"/>
<path d="M19.22 66V57.6H21.908C22.356 57.6 22.76 57.71 23.12 57.93C23.48 58.146 23.766 58.44 23.978 58.812C24.194 59.18 24.302 59.594 24.302 60.054C24.302 60.518 24.192 60.936 23.972 61.308C23.756 61.68 23.466 61.974 23.102 62.19C22.742 62.406 22.344 62.514 21.908 62.514H20.06V66H19.22ZM20.06 61.674H21.842C22.138 61.674 22.408 61.602 22.652 61.458C22.9 61.31 23.096 61.112 23.24 60.864C23.388 60.612 23.462 60.328 23.462 60.012C23.462 59.696 23.388 59.414 23.24 59.166C23.096 58.914 22.9 58.716 22.652 58.572C22.408 58.424 22.138 58.35 21.842 58.35H20.06V61.674ZM27.6491 66.156C27.0971 66.156 26.5931 66.014 26.1371 65.73C25.6851 65.446 25.3231 65.066 25.0511 64.59C24.7831 64.11 24.6491 63.58 24.6491 63C24.6491 62.56 24.7271 62.15 24.8831 61.77C25.0391 61.386 25.2531 61.05 25.5251 60.762C25.8011 60.47 26.1211 60.242 26.4851 60.078C26.8491 59.914 27.2371 59.832 27.6491 59.832C28.2011 59.832 28.7031 59.974 29.1551 60.258C29.6111 60.542 29.9731 60.924 30.2411 61.404C30.5131 61.884 30.6491 62.416 30.6491 63C30.6491 63.436 30.5711 63.844 30.4151 64.224C30.2591 64.604 30.0431 64.94 29.7671 65.232C29.4951 65.52 29.1771 65.746 28.8131 65.91C28.4531 66.074 28.0651 66.156 27.6491 66.156ZM27.6491 65.316C28.0571 65.316 28.4231 65.21 28.7471 64.998C29.0751 64.782 29.3331 64.498 29.5211 64.146C29.7131 63.794 29.8091 63.412 29.8091 63C29.8091 62.58 29.7131 62.194 29.5211 61.842C29.3291 61.486 29.0691 61.202 28.7411 60.99C28.4171 60.778 28.0531 60.672 27.6491 60.672C27.2411 60.672 26.8731 60.78 26.5451 60.996C26.2211 61.208 25.9631 61.49 25.7711 61.842C25.5831 62.194 25.4891 62.58 25.4891 63C25.4891 63.432 25.5871 63.824 25.7831 64.176C25.9791 64.524 26.2411 64.802 26.5691 65.01C26.8971 65.214 27.2571 65.316 27.6491 65.316ZM34.2467 66.156C33.6947 66.156 33.1907 66.014 32.7347 65.73C32.2827 65.446 31.9207 65.066 31.6487 64.59C31.3807 64.11 31.2467 63.58 31.2467 63C31.2467 62.56 31.3247 62.15 31.4807 61.77C31.6367 61.386 31.8507 61.05 32.1227 60.762C32.3987 60.47 32.7187 60.242 33.0827 60.078C33.4467 59.914 33.8347 59.832 34.2467 59.832C34.7987 59.832 35.3007 59.974 35.7527 60.258C36.2087 60.542 36.5707 60.924 36.8387 61.404C37.1107 61.884 37.2467 62.416 37.2467 63C37.2467 63.436 37.1687 63.844 37.0127 64.224C36.8567 64.604 36.6407 64.94 36.3647 65.232C36.0927 65.52 35.7747 65.746 35.4107 65.91C35.0507 66.074 34.6627 66.156 34.2467 66.156ZM34.2467 65.316C34.6547 65.316 35.0207 65.21 35.3447 64.998C35.6727 64.782 35.9307 64.498 36.1187 64.146C36.3107 63.794 36.4067 63.412 36.4067 63C36.4067 62.58 36.3107 62.194 36.1187 61.842C35.9267 61.486 35.6667 61.202 35.3387 60.99C35.0147 60.778 34.6507 60.672 34.2467 60.672C33.8387 60.672 33.4707 60.78 33.1427 60.996C32.8187 61.208 32.5607 61.49 32.3687 61.842C32.1807 62.194 32.0867 62.58 32.0867 63C32.0867 63.432 32.1847 63.824 32.3807 64.176C32.5767 64.524 32.8387 64.802 33.1667 65.01C33.4947 65.214 33.8547 65.316 34.2467 65.316ZM38.263 66V60H39.103V60.828C39.315 60.524 39.591 60.282 39.931 60.102C40.271 59.922 40.641 59.832 41.041 59.832C41.273 59.832 41.497 59.862 41.713 59.922L41.371 60.756C41.203 60.704 41.039 60.678 40.879 60.678C40.555 60.678 40.257 60.758 39.985 60.918C39.717 61.078 39.503 61.292 39.343 61.56C39.183 61.828 39.103 62.126 39.103 62.454V66H38.263Z" fill="#333539"/>
</svg>
