<svg width="22" height="18" viewBox="0 0 22 18" fill="none" xmlns="http://www.w3.org/2000/svg">
<g id="Group">
<path id="Vector" d="M21 7V11M1.6 1H7.778C7.92101 0.999989 8.05932 1.05106 8.168 1.144L11.332 3.856C11.4407 3.94894 11.579 4.00001 11.722 4H20.4C20.4788 4 20.5568 4.01552 20.6296 4.04567C20.7024 4.07583 20.7685 4.12002 20.8243 4.17574C20.88 4.23145 20.9242 4.29759 20.9543 4.37039C20.9845 4.44319 21 4.52121 21 4.6V7.4C21 7.47879 20.9845 7.55681 20.9543 7.62961C20.9242 7.70241 20.88 7.76855 20.8243 7.82426C20.7685 7.87998 20.7024 7.92417 20.6296 7.95433C20.5568 7.98448 20.4788 8 20.4 8H1.6C1.44087 8 1.28826 7.93679 1.17574 7.82426C1.06321 7.71174 1 7.55913 1 7.4V1.6C1 1.44087 1.06321 1.28826 1.17574 1.17574C1.28826 1.06321 1.44087 1 1.6 1Z" stroke="#656D63" stroke-linecap="round" stroke-linejoin="round"/>
<path id="Vector_2" d="M1 7V16.4C1 16.5591 1.06321 16.7117 1.17574 16.8243C1.28826 16.9368 1.44087 17 1.6 17H12" stroke="#656D63" stroke-linecap="round" stroke-linejoin="round"/>
</g>
</svg>
