<svg width="32" height="32" viewBox="0 0 32 32" fill="none" xmlns="http://www.w3.org/2000/svg">
<g id="icon:sparks:nav">
<path id="Vector" d="M14.725 -7.62939e-06C15.0119 3.76813 16 4.4332 19.45 5.16323C16.1215 5.51702 15.461 6.61952 14.725 10.3265C13.989 6.61952 13.4586 5.51702 10 5.16323C13.3923 4.35888 14.3462 3.76813 14.725 -7.62939e-06Z" fill="#EFD02A"/>
<path id="Vector_2" d="M21.3535 8.73217C22 17.2226 24.5 18.718 32 20.3661C24.5 21.1632 23.0119 23.6474 21.3535 32C19.6951 23.6474 18.5 21.1632 10.707 20.3661C18.3507 18.5537 20.5 17.2226 21.3535 8.73217Z" fill="#EFD02A"/>
<path id="Vector_3" d="M5.355 10.445C5.68018 14.7156 7 15.7625 10.71 16.2967C6.93764 16.6977 6.18913 17.9472 5.355 22.1484C4.52087 17.9472 3.91974 16.6977 0 16.2967C3.84466 15.3851 4.92571 14.7156 5.355 10.445Z" fill="#EFD02A"/>
</g>
</svg>
