<svg width="24" height="24" viewBox="0 0 24 24" fill="none" xmlns="http://www.w3.org/2000/svg">
<g id="ic:sparks" clip-path="url(#clip0_68_267)">
<path id="Vector" d="M9.39988 17.125C15.0061 17.125 17.4499 14.5612 17.4499 8.375C17.4499 14.5612 19.8764 17.125 25.4999 17.125C19.8764 17.125 17.4499 19.7625 17.4499 25.875C17.4499 19.7625 15.0061 17.125 9.39988 17.125ZM2.49988 6.5C6.10398 6.5 7.67488 4.8525 7.67488 0.875C7.67488 4.8525 9.23543 6.5 12.8499 6.5C9.23543 6.5 7.67488 8.19625 7.67488 12.125C7.67488 8.19625 6.10398 6.5 2.49988 6.5Z" fill="#DFEFDC"/>
<path id="Vector_2" d="M8 15C12.875 15 15 12.949 15 8C15 12.949 17.11 15 22 15C17.11 15 15 17.11 15 22C15 17.11 12.875 15 8 15ZM2 6.5C5.134 6.5 6.5 5.182 6.5 2C6.5 5.182 7.857 6.5 11 6.5C7.857 6.5 6.5 7.857 6.5 11C6.5 7.857 5.134 6.5 2 6.5Z" stroke="#131612" stroke-width="1.5" stroke-linejoin="round"/>
</g>
<defs>
<clipPath id="clip0_68_267">
<rect width="24" height="24" fill="white"/>
</clipPath>
</defs>
</svg>
